<svg
  width="200"
  height="200"
  viewBox="0 0 200 200"
  fill="none"
  xmlns="http://www.w3.org/2000/svg"
>
  <g clip-path="url(#clip0_466_2)">
    <rect width="200" height="200" rx="20" fill="black" />
    <path
      d="M70.88 159V131.8H97.44C103.413 131.8 108.587 130.733 112.96 128.6C117.333 126.36 120.693 123 123.04 118.52C125.387 114.04 126.56 108.493 126.56 101.88C126.56 95.2667 125.333 89.7733 122.88 85.4C120.533 81.0267 117.173 77.7733 112.8 75.64C108.533 73.4 103.413 72.28 97.44 72.28H69.28V45.08H97.44C106.4 45.08 114.613 46.4133 122.08 49.08C129.653 51.7467 136.213 55.5867 141.76 60.6C147.307 65.6133 151.573 71.64 154.56 78.68C157.653 85.6133 159.2 93.4 159.2 102.04C159.2 110.68 157.653 118.52 154.56 125.56C151.573 132.493 147.307 138.467 141.76 143.48C136.213 148.493 129.707 152.333 122.24 155C114.773 157.667 106.613 159 97.76 159H70.88ZM49.44 159V45.08H81.44V159H49.44Z"
      fill="white"
    />
    <line
      x1="144.224"
      y1="57.7678"
      x2="118.768"
      y2="83.2236"
      stroke="black"
      stroke-width="5"
    />
    <line
      x1="139.224"
      y1="52.7678"
      x2="113.768"
      y2="78.2236"
      stroke="black"
      stroke-width="5"
    />
  </g>
  <defs>
    <clipPath id="clip0_466_2">
      <rect width="200" height="200" rx="20" fill="white" />
    </clipPath>
  </defs>
</svg>
